<svg width="574" height="800" viewBox="0 0 574 800" fill="none" xmlns="http://www.w3.org/2000/svg">
    <path fill-rule="evenodd" clip-rule="evenodd"
        d="M354.338 721.17C315.28 721.17 277.925 713.741 243.662 700.153L120.682 780.664C187.946 824.538 268.208 850 354.338 850C513.601 850 652.671 762.949 727.065 633.547L616.2 569.101C563.891 660.024 466.213 721.17 354.338 721.17Z"
        fill="#27B475" />
    <path fill-rule="evenodd" clip-rule="evenodd"
        d="M67.1128 94.5434L193.753 417.031L67.1128 739.456L267.074 608.531L559.728 417.031L267.074 225.469L67.1128 94.5434Z"
        fill="#27B475" />
    <path fill-rule="evenodd" clip-rule="evenodd"
        d="M354.34 112.83C466.215 112.83 563.892 173.975 616.201 264.899L727.067 200.452C652.61 71.0508 513.602 -16 354.34 -16C268.146 -16 187.947 9.46125 120.621 53.3359L243.664 133.847C277.927 120.259 315.218 112.83 354.34 112.83Z"
        fill="#27B475" />
    <path fill-rule="evenodd" clip-rule="evenodd"
        d="M18.6488 687.962L77.331 539.004L125.413 416.968L77.331 294.995L18.6488 146.038C-40.5383 220.199 -76 314.425 -76 417.032C-76 519.575 -40.5383 613.801 18.6488 687.962Z"
        fill="#27B475" />
</svg>