<?xml version="1.0" encoding="UTF-8"?>
<svg version="1.1" viewBox="0 0 2000 1249" width="2000" height="1249"
    xmlns="http://www.w3.org/2000/svg">
    <path transform="translate(1554,180)"
        d="m0 0h10l5 5v2l9 2 3 3 5 1 20 1 6 2 9 8 2 4-1 4-7 8-3 4 7 1 1 4-3 2-6-1-1-6-2-1-9 1-10 9-2 3-6 2-1 3 16-4 9-3 15 1 6 1 13-1 17 4 5 2h8l6 3h11l4-5 2-3 8-1 4 2 18 2 4 5 2 8 2 12 4 3 6-1 12-6h26l7 1 9-4h2l1-3 8-6 3-1h11l21 2 7 2 15 2 6 5 3 3 10 5 3 3h11l7-1h17l10 3 8 6 9 4 13 4 29 1 4 2 8 1v94l-19 4-8 3-6 3-13 13-1 2 6-2h4v3l-4 1-2 9-3 6-5 5-4 5-3 6-6 7-6 9-5 6-4 8-4 7-3 1-2-1-3-18-2-7-1-11v-12l4-6 7-10 11-7 14-15 3-5 9-4 3-2 2-11-4 1-3 5-10 4-9-3-4-2h-10l-7 3-6 5-2 3h-2l-2 4-3 8-8 3h-10l-12-6-10 1-4 1-30 2-10 4-6 5h-2l-2 4-9 8-5 5-5 4-4 4-8 7-1 5 11 3h17l9 6 2 5v7l-4 9-2 18-4 11-4 4-5 4-6 8-12 13-8 7-5 6-12 3-6 4-7 3-7 9-7 5-1 2v6l7 11 4 12 1 7-6 3-18 1-2-2-1-4v-17l-5-4-2-9-5-4-12-1-3-7-6 1-11 8-5 3h-2l2 7 3 3 1 3 6 1 5-1 6 2v4l-5 2-7 6-1 4 3 8 6 10 4 6 1 7v13l-8 17-5 5-6 8-6 4-12 12-9 3-5 6-11 1-31 1-6 3-7 9v7l10 16 7 5 3 12 1 15-5 4-12 9-5 6-6 1-2-7-11-9-6-7-10-6h-4l-1 5-1 22 6 15 10 8 3 3 2 6-8 2 1 2 7-1 3 5 2 6v5l-9-1-4-6h-3l1 5 5 6 8 6 8 11 9 12 2 9v7l19 7 14 1 13 5 10 2 1 3 2 1-13 1-6-2-10-1-16-4-10-3-17-10-9-8-7-8-8-5-6-15-5-8-3-3-6-5-6-9-7-7-1-5 7-5 2-4 4-1 5 1h6l-2-7-5-3v-34l-3-10-2-11-3-4-5-1-1 4v10l-7-2-4-5v-14l-4-10-5-5-5-6-4-6v-2l-11 1-16 4-5 6-11 6-6 5-8 11-2 5-9 4-6 4-2 4-2 14-4 17-7 8-2 1h-8l-6-10-5-7-5-12-8-24-3-17-3-6-4-6-11-3-5-4-4-8-12-11-5-7h-44l-6-2-9-1-3-2-1-5h-10l-7 2h-6l-15-13-9-10-1-3h-10l1 10 3 7 8 10 2 3 6 2 2 6 2 1h14l6-5 9-1 4 9 11 6 8 9-1 5-10 9-5 7-9 6-10 8-9 4-6 4-7 6-13 4-5 3-25 8-4 2h-6l4 6 9 11 6 9v2l4 1h14l13-2 6-2 10-2h6l1 5-8 20-10 19-13 15-7 7-9 7-13 14-6 5-7 8-5 5-6 9-3 5-1 10 2 5 1 11 6 15 2 13 3 9-4 8-3 9-7 7-12 6-5 4h-2v2l-7 6-2 4v12l2 8v17l-16 5-4 16-3 7-10 15-16 16-8 7-10 6-4 3-29 1-5 1h-7l-6-3-4-9-8-16-5-13-10-17-4-7-4-24-2-9-8-14-8-12-1-5v-11l4-17 6-8 4-5 1-6-4-9-4-10-5-21-5-10-9-11-4-6-3-4 1-12 4-17v-6l-5-5-10-4-9-2-5-5-6-4-4-1h-10l-19 3-10 4-5 1-26 1-11 3-5 2-5-1-10-8-8-7-9-6-7-10-5-6v-2l-4-2-10-11-7-5-2-13v-9l4-12 1-12-2-12-3-5v-6l13-26 9-10 7-9 11-8 6-4 4-9 2-10 4-9 7-7 9-4h2v-4l-9-2-7-6-5-1h-6l-2-2v-9l-1-11 2-12v-12l-1-9 3-3h49l3-7v-13l-8-11-6-5-9-3-2-2v-5l3-1 11-1 7-6 12-2 8-3 6-8 10-9 8-6 8-9 10-4 5-3 7-1v-5l-4-10-2-13 5-5 4-1-1-6-16 1-5-5-4-12-2-23 2-5 11-8 5-4 15-10 18-18 6-8 7-10 4-6 7-8 1-8 2-2 10-2 5-7 5-2 18-3 17-5 11-6 14-2h9l12 3 11 9 13 5 9 4 10 4 17 9 4 4 9 3 9 9 11 3h2l2-5 1-3v-12l3-3 13 3 2 3-1 4-6 3 1 5h9l5-1 2-5 1-2 12-2 11-6 12-3h7l6 2 7-1 14-3 16-4-1-5-9-5-1-6h7l5 3 7 4 11 2 11 1 7 2 1-9 5-6 6-5 4-10 4-2h17l5 3 1 6-3 6 1 16v10l3 8 3 3 2 11 4-1 2-10v-5l-4-5-1-4v-13l-4-6 1-5 5-3 4-4 3-5h6l1 3 5-1 9-2 10 2 4 5 10 3-2-6-5-3-1-9 3-2 15-2 16-3 5-3 4-8 9-7 9-5 9-3 23-4 9-2 17-2 18-9 7-6zm-249 104-1 1v5l7 5h4v-6l-4-3zm44 29m-265 4v3l4 6 6 12 1 1h6l4-3h10l7-1 3-3 4-7v-4l-27-2-12-2zm-77 8-7 2-7 8-3 9-10 6v2l-4 2-7 6-2 4-2 13 4 8 4 7-1 6-9 8-3 10v12l-3 3-10 1-5 5-3 2-4-1-2-3-3-12-4-7-3-6-6-10-7 1-3 4v7l3 14 1 3v7l-1 1v5l7 6 6 1 4-1h8l5 2h9l13-3 21-1 6-2 2-6 2-12 5-10 5-4 6-1v-18l-3-5-6-2h-6l1-6 1-5-7-5h-6l-2-3 9 1 2-10 18-12 6-9 1-9-6-3zm18 61-4 3 1 3h15l5-2-1-3-3-1zm933 22m-763 106-6 7-4 9-5 3-3 6v6l4 5 3 6 6 5 1 2v8l-2 5v10l4 5 7 4 7 2h10l3-4-2-16-3-7-3-21-5-6-4-8 3-12 3-5-6-4zm-102 12-2 2v9l-5 4-5 1-4-7-2-5-6-3h-8l-6 3-3 5-2 5-4 5-3 8-4 5 2 9 5 3h12l7-3 2-1h13l13 1 8 3 13 1h13l10-1 3-3-2-4-5-5-6-7-11-9-9-2v-2h-2l6-8-2-4zm-163 8-1 1v7l3 5 6 5 6 11 12 7 5 4v5l-1 1-1 11-3-4-7-8-9-5-3-3-7-4-8-7-5-5-5-8-4-2h-8l-14 6-13 1-6 3-3 5-2 8-4 3-8 3-4 5-4 9-4 8-8 9-5 3-1 5 15 1 7-3 6-4 18-5 10-2 15-1h36l7 1h11l-1 7-15-1-2 10-2 3 1 5 10 5 16 5 6 3 7 6 11 3 7 3 6-1 7-8 5-5 3-2h6l9 5h15l2 3 3 1 13 1 5 2h9l6-2h8l6 2 2-5v-10l5-15-1-4-3-2h-7l-5 4-9 1-6-3-10 2h-8l-5-5-8-3h-2l-2-10-1-4v-13l-4-3h-7l-8 4-7 1 1 7 1 3v7l-1 6-1 7h-5l-3-5-1-10-4-5-8-5h-2l-2-15-3-6-12-10-12-5-8-7-11-8zm166 136v7l5 8 10 23 7 7 8 19 10 24 5 7 4 2 5-1-1-9-5-16-3-8-10-16-5-6h-2l-3-12-6-10-4-4-5-8-5-7zm432 144-3 2-1 5 2 2h5l1-6-2-3z"
        fill="#D9D9D9" />
    <path transform="translate(97,181)"
        d="m0 0h18l16 3h11l6 3 8 5 11 5 5 3 10 2 6 4h5l2-2h7l5 2 2 5h2l-2-4 1-6 5-3h6l4 1 4 7 6 10 4 10 1 3 4 2 17 8 1 5-2 1h-8l1 7-2 2h-10l-9-4-11-1-7 3-1 2h-2v2l17 1 3 1v2l5 2 2 1 13 1h26l3-1v-5l-3-2v-6l4-6 8 1 7 1-1-5-3-4v-16h-14l-10-5-7-4-9-3-5-6 1-3 9 1 4 3 3 1-1-5-5-3 1-5 5-3 12-1 7-1 5 4 1 7 8-2 3-7 6-3 10-1 14 1 4 3-1 9-3 7-14 1-5 10 8 14 12 9 7 2 1 3v7h8l9 4 5 3 2 1h6l5-6-1-5-3-6-9-4-5-2-8-1-3-7-3-5-3-3v-9l5-9 5-6 13-7 5-1 5 4 2 3 9-2 3-1h17l20 1 9 3 10 11 2 1v2l5 2 9 7 13 2 9 7 12 6 5 4 5 2 1 2v6l-3 3-2 1v3l11 3 10 7 8 3 16 12-1 5-5 3-6 7-3 3-6-1-8-7-6-2-5 1 1 6 6 7 6 5 5 15-1 4-14-1v6l-6 1-9-3-3-2-10-2-6-5-2-5-6-2-6-5-5-2-10 1-8 2h-8l-1-1v-7l3-3 3-1h18l2-1 1-4-1-8 4-4 7-3 2-2v-6l-2-1-9-1-3-7-7-5-5-3-8-6-5-1h-16l-5-3h-5l-1 1 1 7v10l-1 3v13l-8 7-12 2h-11l4 9v2l9 3 8 3 10 6 2 2 9 3 1 4-3 2-7-1-10-6h-7l-4 6-5 2-7-7-1-13v-2l-6 3-6 8-7 3-8 3-8 9-9 6-9 8-4 9v9l3 9 4 6 4 10 3 2 14 2 13 4 7 5 23 9 11 3 3 8 3 12 6 9 8 4h7l2-5-3-12-2-12 1-3 8-4 3-3h2l3-10 1-9-3-5-8-4v-4l5-4 2-4v-6l-6-16-1-1v-6l1-2 5-2h8l10 3 15 1 5 4v2h2v2h2v2l12 6v3l-1 1v5l5 6v2l5 2 9 4 6-2 6-5 7-9 3-1 3 3 1 8 4 2 7 7 5 10 4 9 12 12 10 5 5 4 4 2 5 7 1 3v19l-3 7 1 4 6 5 8 1 4 10 5 4v4h-6l-10-5-26-1-1-1 1-7 4-4 4-10 5-9h-10l-10 5-3 8h-8l-4-2h-7l-5 5-6 3-3 11 1 11 2 4 8 4 8 2v4l-7 2h-7l-1-4-6-1h-8l-6 3-6 4-9 5-3 6-7 3v11l-9 6-10 2-3 1-2 6-5 6-5 5-3 2-6 1 1 7 2 4v7l-9 12-11 9-7 6-5 7-5 5v7l3 7 5 16v10l-1 2-6-1-5-6-8-20-3-3-12-3-17-3h-19l-1 4-1 1-17 1-19 4-8 4-3 5v6l2 3v5l-5 5-1 3-1 22 5 10 9 11 6 4 6 2h7l11-4 7-10 3-5 5-3 18-1-1 5-3 3-5 19-1 12 28 2 5 5 1 7 1 23 3 5 4 5 5-1 25-10 11 1 7 3 10 5h13l4 1h7l2-1h7l10 6 8 6 11 10 15 11 3 1 15 1 11 3 12 11 8 16 3 13 12 2 20 6 6 4 3 3 13 1 8 2 11 1 16 9 7 6 6 4 3 3 1 4v16l-10 13-6 8-5 6-3 3-1 4-1 18-2 10-5 16-7 11-5 8-10 4-12 3-17 10-7 6-1 2-2 14-4 8-12 16-10 12-4 8-4 4-10 8-15 1-4 1-1 2-1 19-2 6-4 3-22 7-5 2-4 9-3 2h-13l-1 2v13l-2 7-1 9-5 3-4 2-2 4v9l4 2 2 3v8l-1 3-9 4-4 10-4 3h-2l-1 9-3 2-11 1h-16l-5-2-2-2-1-31-2-7v-5l5-5 4-18v-15l-1-4v-22l1-13 8-18 4-19 1-15 5-30 5-36-1-10-4-10-7-13-5-4-6-3-13-10-6-6-7-16-8-16-9-14-8-11-3-5-1-3v-12l5-23 4-8 5-8 4-6 4-5 2-7 2-21 4-5 1-4-2-6-5-4-10-5-3-5-7-8-6-7-7-4-16-6-10-4-12-9-2-1-16 1-16-4-17-6-9-4-10-1-6-9-4-5-4-17-3-6-13-13-10-8-7-8-12-12-7-3 3 8 8 7 4 8 2 11-2 1-6-3-3-7-4-7-3-2-6-2-3-3 1-10-9-9-8-15-8-12-7-6-11-6-4-5-6-7-6-5-10-20-3-8-1-12v-19l2-17-1-9-5-13-5-6-8-7-6-5-1-2-1-15-7-9-6-5-6-9-7-10-4-3h-3l2 7v4h-5l-4-5 1-5 1-3-4-2-7-1-5-5-4-5-6-9-5-4v-112l10-5 7-4 22-5 9-3h8l6 1 3-1 2-5h5l4 5 4 2h7l6-1 4 2h14l13 3 20 7 13 1 8 5 4 6 3 1h33l2-11-7-1h-12l-6 1h-9l-6-5-11-3-9-2-2-1-1-9-6-7-5-8 1-5 1-6-1-1-8 1-4 6-2 2-7 2-4 5-7 1-7-6-10-2-1-1v-5l8-15 2-13zm198 27v3h4l-1-3zm1 39m1 1 1 4 4 1-1-4zm59 16-1 3 2 5h4v-7zm-149 5 1 2 2-1z"
        fill="#D9D9D9" />
    <path transform="translate(743,37)"
        d="m0 0h20l4 1 15 1 13 3 8 3 14 5 10 2 1 5-3 2v4l5 3 1 4-3 3-1 3 8-2 1-1 15-1 13-5 6-1h14l16 2v6l-5 3-14 7-11 3-2 5-13 8-7 2v6l4 2v5l-1 1h-10l-4 1-1 9 4 4 9 2 4 6 4 2 1 5-2 1h-23l-2 1 1 5 14 4 5 4 2 9-1 2-6 2 2 9-7 4-3 7-9 2h-9l-12 1 2 8 3 3 4 1 5-5 5 1v8l-1 1v5l5 4 1 7-2 3-12 3-1 7-11 8-8 3-10 3-10 4-11 3-11 2-8 6-7 9-5 4-30 10-7 6-5 13-8 12-3 12-5 11-3 5-4 1-8-4-12-5-9-6-11-11-8-13-6-9-8-15-2-3-1-12v-11l4-8v-8l-8-2-7-2-1-2v-6l10-9v-7l-8-1-3-4-1-8v-8l-5-12-6-11-11-9-7-6-12-7-12-2h-7l-24 5h-10l-3-3-3-6-10-4-4-11-12-6-1-4 2-4 23-4 9-4 14-4 4-3-1-5-6-3-1-1v-5l8-5 30-15 4-4 30-7 10-2h12l8 1h11l6-3h16l11-8 11-4h10l24-2 32-4zm66 25-2 4 2 3 4-1 1-4zm1 169v3l3-1-1-2zm-193 15 1 4 3-1-1-3z"
        fill="#D9D9D9" />
    <path transform="translate(1852,946)"
        d="m0 0h4l5 13 3 11 4 3 6 3 3 6 3 10 3 4 3 12 2 3 8 4 9 7 9 15 7 5 6 9 8 8 6 7 1 5 1 16 1 5v8l-4 14-3 15-9 13-5 13-4 8-4 14-16 4-10 7-7-1-7-4h-5l-3 2h-12l-10-3-8-6-10-18-5-5-1-2-6-2-1-6 2-6-3-1-5 3-6 10-3 1-5-5-4-6-6-12-4-4-5-2h-28l-10 3-4 2-22 4-8 6-3 2-21 2-9 2-8 6-5 2-7 1h-11l-2-4-4-2-1-1 1-8v-14l-4-16-8-26-2-5v-8l-2-10 1-11 3-5 3-3 5-3 12-7 5-2 9-2 9-5 13-5 9-8 4-9 3-3 6-3 9-11 8-7 7-3h7l10 5 5-2 5-5 7-8 4-5 9-3 2-5 5 1 9 5 14 1 6 2-1 5-2 3-2 9-1 5v2l12 2 10 8 9 7 5 4 4-1 4-7 4-27 2-8 1-10z"
        fill="#D9D9D9" />
    <path transform="translate(452,45)"
        d="m0 0h26l25 4 6 2 19 1 6 5 9 1 3 3-1 3-7 2-15 1-7 3-1 7-8 3-8 6-7 4-5 3-7 4-4 5-14 3-12 6-3 5-2 8-7 6-11 3-3 6-4 3v3l6 3 1 3-10 3-6 2-8-1-46-1-11-2-4-8-8-3 1-4 7 1 4 4 6 1 6-1-3-14-2-1-29-2-6-4-9-9-5-3-5-4-5-3-2-4v-4l6-5 4-6 2-2 10-3h9l6 3 2 4 4 2 13 8h7l4 6 6 1-1-10-1-2-17-5-6-4-4-7 1-5 16-4 15-4 9-2 16-2 19-6 19-3z"
        fill="#D9D9D9" />
    <path transform="translate(1762,858)"
        d="m0 0 19 2 5 3 5 12 2 3 6 1 2-4 6-7 5-2 9 1 14 5 9 3 16 8 10 3 8 7 7 7 10 6 1 1 1 9 7 10 5 5 6 4 5 3-1 4-9-2-13-5-12-11-5-4h-11l-5 3h-2l-2 5-3 4-4 1-8-3-9-8-4-2-8 1-4 2-5-1-1-5 5-8v-6l-5-5-8-5-16-2-4-5-9-1-4-4-3-9-10-8-1-3z"
        fill="#D9D9D9" />
    <path transform="translate(296,145)"
        d="m0 0h9l13 3h12l9 7 2 5 3 3 10 1h22l22-1 9 3 6 1 1 3-2 5-6 4-7 1h-95l-9-6-1-3-3-1-10 3h-12l-6-5-5-2-13-2-11-6-1-1v-6l5-3 12 6 5-1 5-2v-2l2-1h15l8 6 3 5h6l3-2-1-4-2-3 1-4z"
        fill="#D9D9D9" />
    <path transform="translate(1643,811)"
        d="m0 0h6l3 4 1 3-1 14 3 9v8l-5 14-7 5-5 10-5 5h-4l-1-3-12-2-16-6-7-15-1-5 2-6 11-3 3-5 11-7 6-5 8-3z"
        fill="#D9D9D9" />
    <path transform="translate(1209,967)"
        d="m0 0 4 1 4 17-6 13-4 15-3 14-7 21-7 11-6 4-7-1-7-5-2-12v-17l4-8-1-14 3-9 5-5 13-7 5-4 5-7 5-5z"
        fill="#D9D9D9" />
    <path transform="translate(1323,174)"
        d="m0 0 8 1v6l-8 4-20 6-27 9-9 6-8 5-7 11-12 12-3 5v11l13 11 1 4-4 1-13-2-14-8-12-6 1-5 6-4 4-9 4-2 2-5 4-6 8-8 5-10 22-12 16-4 9-1 14-4 11-4z"
        fill="#D9D9D9" />
    <path transform="translate(807,408)"
        d="m0 0h6l3 7 8 3 1 3-3 5-2 6 8 5 6 8 5 5 4 10v3l9 2 2 3-1 5-4 5-2 5-5 2-23 2-11 4h-4l-1-5 3-12 3-4 2-9 6-4v-5l-3-5-7-3-3-9-5-5v-7l3-10z"
        fill="#D9D9D9" />
    <path transform="translate(203,147)"
        d="m0 0 5 1 2 3v7l6 2h13l1 1v8l-5 4-22 1-17 5h-7l-8-4-25-4-3-3-9-2-1-5 1-1h14l8-6 6-3 5 1 10 5 5 2 9-1 10-10z"
        fill="#D9D9D9" />
    <path transform="translate(733,319)"
        d="m0 0 7 1 5 5 5-1 5-2 20-3h14l5 7 2 1v2h2v5l-6 5-9 2-7 5-14 3-13-1-8-2-4-7-1-9-8-2-1-5 3-3z"
        fill="#D9D9D9" />
    <path transform="translate(1801,560)"
        d="m0 0h7l3 2 2 11-3 7-3 3-2 12v9l-2 3-9 1-8 3-7 2-5 2-22 5-7 3-3 9h-5l-5-7 1-5 8-6 5-5 9-4 17-2 10-10 9-2 7-10 2-5z"
        fill="#D9D9D9" />
    <path transform="translate(1676,726)"
        d="m0 0h7l1 2 1 18 4 11 4 5 3 5 6 4 1 1-1 14-7-1-1 3-8 3-3-9-5-9-6-4-2-7-3-6-3-7 6-16 2-5zm18 52 1 5 1-2z"
        fill="#D9D9D9" />
    <path transform="translate(792,441)"
        d="m0 0 5 1 2 2v7l-1 2-2 12-4 5-10 4-3 2-9 1-3-1-1-7 5-5-1-11 1-2 13-4z" fill="#D9D9D9" />
    <path transform="translate(144,139)"
        d="m0 0h10l1 4-3 8-2 1-14-1-3 1-1 7-3 1-20-1-1-3 3-3 8-4 10-6 9-3z" fill="#D9D9D9" />
    <path transform="translate(232,110)"
        d="m0 0h11l5 3 20 5 7 9 1 5-1 1-11-1-6-4-10-3-6-5v-2l-8-1-2-2z" fill="#D9D9D9" />
    <path transform="translate(1818,454)"
        d="m0 0h2l1 2 1 14 2 13v8l-3 4-1 3v18l-5 1-2-2 1-13v-27l-1-5v-14z" fill="#D9D9D9" />
    <path transform="translate(1813,527)"
        d="m0 0 5 1 7 6 10 4 2 2-1 4-13 4-13 2-7 6-3-1v-6l5-5 6-5 1-2z" fill="#D9D9D9" />
    <path transform="translate(1665,859)"
        d="m0 0 10 2 13-1 2 1-1 4-9 2-1 1v5l1 1v5l-5-1-3-2h-3l-1 3-6-1-2-3 1-10 3-5z" fill="#D9D9D9" />
    <path transform="translate(1892,1211)" d="m0 0 6 1 1 4-3 7-5 4-5 2h-6l-2-3v-8l4-4z"
        fill="#D9D9D9" />
    <path transform="translate(1704,790)" d="m0 0h3l2 6v8l-7 7-7-1-3-6-1-5 8-3z" fill="#D9D9D9" />
    <path transform="translate(284,118)" d="m0 0 11 2 8 6 1 4-3 4-6-1-7-1-3-5v-2h-2v-6z"
        fill="#D9D9D9" />
    <path transform="translate(435,259)" d="m0 0 9 2 2 5-1 5-4 2h-8l-2-5v-8z" fill="#D9D9D9" />
    <path transform="translate(1397,793)" d="m0 0h5l3 5 2 6v5l-2 2h-6l-3-10v-6z" fill="#D9D9D9" />
    <path transform="translate(177,130)" d="m0 0h11l2 1v5l-4 2h-10l-5-3 1-3z" fill="#D9D9D9" />
    <path transform="translate(1640,911)" d="m0 0h18l2 2v3l-8 1h-10l-3-2z" fill="#D9D9D9" />
    <path transform="translate(225,190)" d="m0 0h7l4 4-2 5-8 1-3-4 1-5z" fill="#D9D9D9" />
    <path transform="translate(227,135)" d="m0 0 7 1 4 5 1 4-2 2-9-3-3-4 1-4z" fill="#D9D9D9" />
    <path transform="translate(192,120)" d="m0 0 6 1 1 3-1 2-8 2-1-1-10-2 1-3z" fill="#D9D9D9" />
    <path transform="translate(1190,279)" d="m0 0 7 1 1 4-4 4h-7l-2-2 1-5z" fill="#D9D9D9" />
    <path transform="translate(1674,684)" d="m0 0 4 1-1 9-1 3-6 1v-7l2-5z" fill="#D9D9D9" />
    <path transform="translate(2e3 1235)" d="m0 0h2v11h-8l-1-3 4-6z" fill="#D9D9D9" />
    <path transform="translate(390,323)" d="m0 0h5v5l-3 2h-6l-1-4 1-2z" fill="#D9D9D9" />
    <path transform="translate(306,133)" d="m0 0 8 1 2 4-1 1-9-1z" fill="#D9D9D9" />
    <path transform="translate(270,97)" d="m0 0h5l2 2-1 4-4 1-3-3z" fill="#D9D9D9" />
    <path transform="translate(1699,916)" d="m0 0 3 1-1 2h-2l-1 3-4 1-1-4z" fill="#D9D9D9" />
    <path transform="translate(1672,911)" d="m0 0 3 1-1 4-5-1v-3z" fill="#D9D9D9" />
    <path transform="translate(1674,847)" d="m0 0 5 1v3l-3 1-2-1z" fill="#D9D9D9" />
    <path transform="translate(1689,851)" d="m0 0 1 2-2-1z" fill="#D9D9D9" />
    <path transform="translate(35,419)" d="m0 0 2 1z" fill="#D9D9D9" />
    <path transform="translate(37,417)" d="m0 0" fill="#D9D9D9" />
    <path transform="translate(1688,850)" d="m0 0" fill="#D9D9D9" />
    <path transform="translate(1683,848)" d="m0 0" fill="#D9D9D9" />
</svg>